<svg xmlns="http://www.w3.org/2000/svg" xmlns:xlink="http://www.w3.org/1999/xlink" aria-hidden="true" role="img" class="iconify iconify--logos" width="35.93" height="32" preserveAspectRatio="xMidYMid meet" viewBox="0 0 256 228"><path fill="#00D8FF" d="M210.483 73.823a178.081 178.081 0 0 0-16.145-9.655a101.08 101.08 0 0 0 1.369-8.041c2.074-18.34-.735-34.819-8.396-46.316c-8.074-12.119-20.993-17.812-35.442-17.812c-16.333 0-35.747 8.289-53.396 23.146c-4.208 3.543-8.37 7.457-12.424 11.665a177.877 177.877 0 0 0-7.523-4.472c-15.142-8.735-29.32-12.833-41.042-12.833c-13.682 0-24.213 5.637-31.008 15.335c-7.095 10.116-9.065 24.451-6.071 40.559c.69 3.708 1.622 7.453 2.757 11.148a178.498 178.498 0 0 0-15.574 9.52C5.152 93.413 0 104.834 0 117.254c0 14.98 8.569 29.222 24.052 41.257c5.284 4.108 11.082 7.891 17.352 11.403c-.57 2.258-1.079 4.519-1.513 6.766c-2.727 14.169-.069 26.141 6.817 35.124c7.254 9.46 18.912 14.428 31.999 14.428c16.142 0 35.539-8.081 53.125-22.918c5.2-4.387 10.354-9.215 15.346-14.421a177.212 177.212 0 0 0 9.608 5.731c14.575 8.386 28.654 12.481 40.472 12.481c13.546 0 24.122-5.491 31.14-15.052c7.232-9.853 9.354-24.134 6.566-40.372c-.469-2.72-1.066-5.419-1.779-8.098c5.752-3.384 11.148-7.109 16.106-11.238C247.447 146.514 256 131.982 256 117.254c0-12.43-5.413-23.854-16.505-33.394c-1.116-.96-2.29-1.887-3.504-2.781l.492-.056v.215Z"/><path fill="#00D8FF" d="M210.483 73.823a178.081 178.081 0 0 0-16.145-9.655a101.08 101.08 0 0 0 1.369-8.041c2.074-18.34-.735-34.819-8.396-46.316c-8.074-12.119-20.993-17.812-35.442-17.812c-16.333 0-35.747 8.289-53.396 23.146c-4.208 3.543-8.37 7.457-12.424 11.665a177.877 177.877 0 0 0-7.523-4.472c-15.142-8.735-29.32-12.833-41.042-12.833c-13.682 0-24.213 5.637-31.008 15.335c-7.095 10.116-9.065 24.451-6.071 40.559c.69 3.708 1.622 7.453 2.757 11.148a178.498 178.498 0 0 0-15.574 9.52C5.152 93.413 0 104.834 0 117.254c0 14.98 8.569 29.222 24.052 41.257c5.284 4.108 11.082 7.891 17.352 11.403c-.57 2.258-1.079 4.519-1.513 6.766c-2.727 14.169-.069 26.141 6.817 35.124c7.254 9.46 18.912 14.428 31.999 14.428c16.142 0 35.539-8.081 53.125-22.918c5.2-4.387 10.354-9.215 15.346-14.421a177.212 177.212 0 0 0 9.608 5.731c14.575 8.386 28.654 12.481 40.472 12.481c13.546 0 24.122-5.491 31.14-15.052c7.232-9.853 9.354-24.134 6.566-40.372c-.469-2.72-1.066-5.419-1.779-8.098c5.752-3.384 11.148-7.109 16.106-11.238C247.447 146.514 256 131.982 256 117.254c0-12.43-5.413-23.854-16.505-33.394c-1.116-.96-2.29-1.887-3.504-2.781l.492-.056v.215Z"/></svg>
